<svg xmlns="http://www.w3.org/2000/svg" viewBox="0 0 1050.01 1024.23"><g id="Capa_2" data-name="Capa 2"><g id="Capa_1-2" data-name="Capa 1"><path d="M0,850.27V173.85c1-6.87,1.92-13.76,3-20.62C14.58,81.86,72.86,20.3,143.47,5.09c10-2.16,20.24-3.42,30.37-5.09H876.18c9.5,1.51,19.13,2.45,28.47,4.61,86,19.88,145.15,93.57,145.24,181.75q.31,325.68,0,651.34c0,25.95-4.41,51.21-15.56,74.66C999.85,985,942,1023.52,861.62,1023.79c-224.42.78-448.84.32-673.26.15a222.41,222.41,0,0,1-34.75-2.91C81.92,1009.56,20.94,952,5.18,881.19,2.92,871,1.7,860.58,0,850.27Zm422.48-237.8c.72,2,1.5,4,2.2,6l32.06,93.93c2.46,7.21,3.37,7.85,11.16,7.85h83.91c1.17,0,2.33,0,3.5,0,4.65-.23,5.92-1.82,5-6.38a30.34,30.34,0,0,0-1.21-3.79Q480.34,490,401.73,270c-1.73-4.83-4.26-6.33-9.1-6.31q-53.69.19-107.39,0c-4.95,0-6.83,1.69-6.83,6.66a121,121,0,0,1-7.71,42.46c-5.72,15.44-10.95,31.05-16.37,46.59L131.84,710.74C128.4,720.61,129.43,722,140,722h74.42c8.2,0,9.54-1,12.08-8.89,10.29-32,20.66-63.91,30.77-95.93,1.18-3.76,2.88-4.81,6.63-4.8Q343.06,612.56,422.48,612.47Zm257.06-39.26h6.33q42,0,83.91,0c19.81,0,39.68-.69,59.41.56s39.56.48,59.32-1c5-.38,7.16-2.77,7.53-7.47.44-5.47,1.12-10.93,1.46-16.41,1.63-26.68,1.72-53.26-6.64-79.1-10.6-32.76-27.68-60.85-57.9-79.2a145.09,145.09,0,0,0-67-20.81c-25.73-1.64-51.43-.93-75.93,7.91-38.75,14-67.17,40.54-85.59,76.87-29.34,57.88-31.86,118-8.82,178.39,15.92,41.73,45.81,70.83,87.9,86.66,23.82,8.95,48.7,11.66,74,11.92,35.22.36,69.74-3.35,102.81-16.35,7.3-2.86,8.39-4.31,8.42-12.23q.11-31.47,0-62.94a43,43,0,0,0-1-6.16c-20.39,8.53-41.26,11.66-62.22,14.19-22.64,2.73-45,2.29-67.23-4.29C705.48,634,684.65,612.87,679.54,573.21Z"/><path d="M285.25,525.42c18.26-60.7,36.45-121.18,54.2-180.17l55.82,180.17Z"/><path d="M679.66,509.41c4.22-43.77,34.87-65.09,66.06-65.21,30.63-.12,54.45,20.07,60,46.21a69.61,69.61,0,0,1,1.14,8.39c.64,7.27-.34,8.61-7.73,9.88a63.68,63.68,0,0,1-10.41.87q-52.38.12-104.77.09C682.68,509.64,681.37,509.5,679.66,509.41Z"/></g></g></svg>