<svg xmlns="http://www.w3.org/2000/svg" viewBox="0 0 1050.01 1023.82"><defs><style>.cls-1{fill:#300;}</style></defs><g id="Capa_2" data-name="Capa 2"><g id="Capa_1-2" data-name="Capa 1"><path class="cls-1" d="M879.2,1023.82H169c-.59-1.5-2-.93-3-1.05-18.43-2.13-36.47-6.17-53.24-14.09C40.16,974.4.9,917,.54,836.66-.43,620.09.21,403.51.2,186.94a188.67,188.67,0,0,1,5.64-46.43C26.86,57.22,100.67.07,187.67,0Q525-.06,862.38,0a198.13,198.13,0,0,1,33.77,2.84A185.6,185.6,0,0,1,1047.24,154c.86,4.93.44,10.14,2.77,14.81V854c-2.17,5.07-1.88,10.6-2.79,15.89-13.2,77-74,137.7-151.16,151.13C890.45,1022,884.64,1021.8,879.2,1023.82ZM595.66,721.4c15,0,30,0,44.93,0,5.76,0,7.08-1.92,5.48-7.47-.23-.8-.53-1.58-.81-2.36Q566.45,489.13,487.74,266.68c-1.69-4.79-4.17-6.37-9-6.35-35.95.14-71.9.07-107.85.08-5.78,0-6.92.94-6.81,6.61.28,15.7-3.23,30.64-8.35,45.34Q324.46,402,293.35,491.7,255.42,600.92,217.5,710.13c-3.33,9.6-2.19,11.27,7.69,11.27h75.4c8.37,0,9.4-.77,12-8.88,10.26-31.77,20.59-63.52,30.69-95.34,1.16-3.64,2.68-4.82,6.54-4.81q76.14.23,152.29,0c4.2,0,6,1.23,7.35,5.21,10.91,32.26,22.13,64.41,33.06,96.67,1.77,5.21,4.57,7.37,10.18,7.26C567,721.2,581.34,721.4,595.66,721.4Zm197.21-173V384.59c0-1.83,0-3.67-.12-5.49-.26-3.56-2.19-5.45-5.81-5.47-3.33,0-6.66,0-10,0q-37.44,0-74.9,0c-5.68,0-7.07,1.41-7.31,7-.06,1.49,0,3,0,4.49V616.82q0,47.94,0,95.88c0,9.87,1.24,11.08,11.3,11.09H727.5c19.14,0,38.28,0,57.43,0,6.2,0,7.64-1.51,7.93-7.61.06-1.5,0-3,0-4.49Zm-48.2-211.53c31,.51,53.86-22.19,54.33-54,.49-33.24-20.73-55.36-53.59-55.85-30.6-.46-54.38,22.46-55.37,52.29C688.9,313.72,712.9,337.7,744.67,336.84Z"/><path class="cls-1" d="M425.46,342c5.24,18.18,10.17,36.45,15.79,54.52,12.58,40.43,25.52,80.75,38.28,121.13,1.88,6,1.82,6-4.21,6H376.48c-6.2,0-6.06,0-4.26-5.69,16.86-53.7,34.44-107.19,48.86-161.63,1.26-4.76,2.26-9.59,3.38-14.39Z"/></g></g></svg>