<svg xmlns="http://www.w3.org/2000/svg" viewBox="0 0 511.33 420.18"><g id="Capa_2" data-name="Capa 2"><g id="Capa_1-2" data-name="Capa 1"><path d="M0,278.57c1.34-8.16,2.3-16.4,4.09-24.45,5.75-26,16.36-49.53,36-68.11,4.91-4.64,10.63-8.49,16.32-12.19,2.58-1.68,3.6-3.27,3.5-6.29-.55-16.19.41-32.24,5.23-47.85,10.75-34.81,32.49-61.41,62.14-81.74C167.17,10.6,211.82-.74,259.75,0,308.1.82,352.59,13.9,391.36,43.51c29.2,22.31,49.85,50.72,57,87.35,2.35,12.12,1.86,24.78,2.87,37.18.14,1.68,1,4.06,2.23,4.8,24.31,14.11,39.13,35.83,47.82,61.69,15.75,46.93,13.57,93-10.24,137-11.58,21.4-28.22,37.82-52.28,45-6.09,1.81-12.54,2.39-19.55,3.66v-7.05c0-83-.58-166,.25-249C419.84,123.77,403.09,93,372.12,69c-27.68-21.44-59.59-32.42-94.18-36-36.77-3.81-72.34,1-106.12,16.33-28.19,12.78-51.74,31.2-67.26,58.61a98.61,98.61,0,0,0-12.77,49.61q.1,127.72,0,255.46v6.22a60.2,60.2,0,0,1-27.88-5.63c-23.25-10.36-38.14-28.85-48.83-51.17A154.66,154.66,0,0,1,.89,309.32,28.41,28.41,0,0,0,0,305.51Z"/><path d="M379.2,321l-3.69,32-.94.14q-5.32-17.53-10.64-35.07l-1.07-.13q-9.37,41-18.73,82l-.92-.05-3.84-86.08c-6.6,11.29-13.25,22.06-13.08,35.85.19,15.1-1.33,30.22-2.14,45.33a32,32,0,0,1-1.51,8.94Q313.3,359.22,304,314.54l-1.15-.08L284.22,396l-1.07.07q-3.7-38.55-7.43-77.11l-1-.1-22.41,93.28-1,0q-3.79-46.9-7.6-93.8l-1.76-.31c-2.16,9.21-5.48,18.32-6.23,27.64-1.31,16.38-1,32.9-1.44,49.36a7.61,7.61,0,0,1-1.2,4.41l-24.78-96.95h-1q-5.58,42.49-11.15,85H195q-3.17-17.71-6.31-35.43c-1.44-8.18-2.32-16.51-4.48-24.5-1.1-4.08-4.46-7.55-6.8-11.3l-1.52.71v70.55c-7.35-22.86-8.42-47.36-20.09-69v69l-.81.09-10.47-52.05-1-.06c-1.2,13.83-2.41,27.67-3.73,42.76-5.8-14.48-7.54-29-14.16-41.74l-1.6.3c-.08,1.52-.23,3-.23,4.56q0,29.44,0,58.88c0,11.69-7.25,18.82-19.58,18.91v-251a26.53,26.53,0,0,1,18,6.71c1.17,1,1.47,3.53,1.47,5.36.09,28.6,0,57.21.17,85.82a77.58,77.58,0,0,0,2.21,17.15,311.9,311.9,0,0,0,9.7,32.86V265.75l.88-.27q5.08,8.36,10.15,16.71l1-.12q3.61-34,7.24-67.94l1.1-.07,7.32,87.33,1,.28c2.71-6.22,5.74-12.34,8-18.72a51.66,51.66,0,0,0,3.26-14.32c1.25-23.75,2.08-47.52,3.1-71.27a41.47,41.47,0,0,1,1.39-9.63c2.39,28.15,4.48,56.34,7.39,84.44.64,6.11,4.23,11.93,6.46,17.88l1.68-.32q5.72-68.27,11.42-136.54l1.12,0q11.31,79.08,22.61,158.14l1.18.06q11.34-87.44,22.69-174.88l.81,0L259.44,293l1.56.35c2.82-11,6.23-21.78,8.33-32.86,4.81-25.45,9-51,14.62-76.69q7.51,50.51,15,101c13.44-41.41,13.07-84.75,20.4-127,5.76,42.38,7.57,85.26,14.47,127.51l2.06.1,18.66-70.59.9.06c1,13.38,2.25,26.76,2.75,40.16.37,9.91,2.84,18.88,9.15,27.74,2.48-15.93,4.86-31.16,7.24-46.4h.86q1.84,30.48,3.7,61c3.7-8.72,8.36-16.77,8.22-26.74-.44-29.76,0-59.54-.3-89.31-.05-4.83,1.71-7.62,5.69-9.24,4.39-1.79,9-3.14,14.08-4.89V418.9c-10.75,1.1-19.63-6.65-19.63-17.07V344.44C387.24,335,385.53,329.87,379.2,321Z"/></g></g></svg>