<svg xmlns="http://www.w3.org/2000/svg" viewBox="0 0 2442.26 1983.66"><g id="Capa_2" data-name="Capa 2"><g id="Capa_1-2" data-name="Capa 1"><path d="M753.23,1192.93c-4.66,3.55-7.8,5.77-10.76,8.2q-128.7,105.48-257.37,211-102.78,84.28-205.53,168.62c-30.88,25.44-65.08,44-104.67,51.3-37.26,6.88-73.87,5-107.91-13.33-39.87-21.43-62.31-55-66.37-100.39-3.19-35.72,6.07-68.62,23.49-99.5,15.29-27.1,35.87-49.55,60.51-68.39q89.73-68.57,179.44-137.17,346.52-265,693-530c2.57-2,5-4.18,9.13-7.7-4.13-.81-6.42-1.62-8.7-1.64-14.33-.1-28.66,0-43,0q-136.93.3-273.88.63c-52,.15-104,.64-155.92.58-17.29,0-34.7-.63-51.47-5.59-8.89-2.64-17.85-5.53-26.17-9.57-51.27-24.88-70.28-77.46-46.89-129.43,14.53-32.28,39.25-54.93,69.53-72.11,33.7-19.13,70.3-25.36,108.59-25.32q183.91.18,367.84-.19,287.88-.17,575.75-.27H1494c.18-6-4.19-7.48-7-9.77q-44.07-36.11-88.34-72L1183.92,176.26c-14.91-12.13-28-25.71-34.55-44.33-7.56-21.3-5.51-42,4.44-61.94,10.93-22,28.29-37.84,49.65-49.1,45.75-24.12,93.29-27.11,142.07-10.22,13.65,4.73,25.67,12.46,37.11,21.25q212.29,163.29,424.71,326.44,165.23,127,330.46,253.91c85.55,65.75,156.54,144.27,209.75,238.49a726.51,726.51,0,0,1,83.77,232.71,707.55,707.55,0,0,1-37,379.9c-51.22,132.48-134.47,241.46-245.24,329.47-113.18,89.93-241.63,147-383.46,174.44a914.4,914.4,0,0,1-220.74,15.15c-143.63-7.26-278.83-44.93-403.88-116.67-124.46-71.39-225-167.64-298.14-291.47-41.68-70.51-71.27-145.82-85.55-226.71-5.61-31.79-10.38-63.79-8.5-96.25,1-16.61,2.94-33.16,4.4-49.74C753.4,1199.47,753.23,1197.32,753.23,1192.93Zm840.86,423.49c32.1.39,63.86-2.6,95.46-7.9,90.08-15.1,171.77-49.75,243.4-106.52,99.5-78.86,161.79-179.65,177.81-307.1,6.17-49.12,3.15-97.73-7.69-145.83-18.22-80.91-56.9-151.2-114.16-210.75-103.89-108-232.74-159.54-381.26-164.59a528.1,528.1,0,0,0-138.71,14c-105.12,24.6-196.42,74.1-270.37,153.47-74.15,79.59-116.16,173.57-122.58,282.61A413.84,413.84,0,0,0,1098.38,1285c34.12,98.4,96.08,175.83,180.93,235C1373.72,1586,1479.55,1615.76,1594.09,1616.42Z"/><path d="M1595.67,1421.93c-88.24-.88-166.81-28-232.81-87.63-48.14-43.51-80.19-96.89-91.79-161.08-14.93-82.59,4.19-157.55,55.89-223.45,50.15-63.91,116.67-102.53,195.76-118.55,83.41-16.9,163.86-6.71,239.36,33.57,67.31,35.9,118.07,88,144.65,160.29,36.3,98.64,20,190.3-44.12,272.73C1815,1359,1751,1395.49,1676,1413.15A333.29,333.29,0,0,1,1595.67,1421.93Z"/></g></g></svg>