<svg xmlns="http://www.w3.org/2000/svg" viewBox="0 0 511.08 511.07"><g id="Capa_2" data-name="Capa 2"><g id="Capa_1-2" data-name="Capa 1"><path d="M239.61,0h31.94a36.15,36.15,0,0,0,4.34.85c41.86,3.27,80.76,15.81,116,38.64,63.25,41,102,98.64,115.47,173,1.62,9,2.51,18.05,3.74,27.08v31.94c-.74,6.08-1.37,12.18-2.24,18.25-8.64,60.1-34.47,111.63-79.31,152.57-64.69,59.07-141,80.2-226.69,63-66.7-13.4-119.52-49.61-158-105.62S-7.09,281.18,3.5,214.07C12,160.42,35.94,114.16,74.22,75.66S158.42,13,212,3.85C221.18,2.29,230.42,1.27,239.61,0ZM378.5,269.58c-3,12-.75,22.56,10.53,29.37,9,5.42,16.86,2.1,24.14-5.08a25.57,25.57,0,0,0,16.14,18.25c1.48.59,3.48-.12,5.24-.23-.62-1.53-.89-3.35-1.9-4.54-5.88-6.81-7.37-14.11-3.81-22.6a69.57,69.57,0,0,0,3.81-13.35c1-5-1.82-7.34-6.69-5.83s-7.69,5.29-9.76,9.95c-1.93,4.34-4,8.84-7.06,12.42-5.49,6.47-11.72,5.09-14.91-2.73-4.67-11.42.09-28.83,10-36.19,4.68-3.49,10-4.92,15.45-2.63a8.57,8.57,0,0,1,4.29,5.36c.32,1.38-1.78,3.42-3,5a18,18,0,0,1-3.14,2.48c1.24,1.06,2,2.11,3.1,2.61,5,2.41,12.37.29,15.1-4.22,2.84-4.68,1.83-12.29-2.94-15.23a32.47,32.47,0,0,0-12.85-4.7c-12.71-1.45-22.81,4.07-31.36,13.17-5,5.28-10,10.92-18.88,9.39.8-1.88,1.58-3.51,2.19-5.19,2.48-6.79,4.41-13.65,2.22-20.92-2-6.67-7.79-10.19-14.62-9-7.81,1.39-13.86,8.06-15.33,17-1.74,10.58.68,19.78,9.54,26.68-5.35,8.49-11,16.11-19,22.14a13.75,13.75,0,0,1-1.33-2.34c-.47-1.76-.84-3.55-1.19-5.34-2.57-13,.38-25.41,4.08-37.76.49-1.65.48-4.34-.5-5.3s-3.77-1.32-5.42-.82c-5.79,1.76-10,5.62-11,11.72-1.08,6.7-1.37,13.52-2,20.29-.16,1.6,0,3.58-.88,4.71-5.16,6.7-11.43,12.07-19.72,14.55-4.83,1.44-7.61-.84-6.83-5.78a113.89,113.89,0,0,1,2.93-12.6c2.2-8,5-15.85,6.75-23.94,1.61-7.46-2.36-11.3-9.52-9a73.78,73.78,0,0,0-16.69,8.5c-3.94,2.54-7.13,6.25-11.45,10.17.44-2.52.68-4.08,1-5.64.36-1.79.89-3.55,1.16-5.35.74-4.8-1.12-6.87-5.89-6.73-7,.21-10.45,3.31-11.7,10.45-1.42,8.18-2.72,16.39-4.52,24.49a12.49,12.49,0,0,1-4,6.3,52.42,52.42,0,0,1-9.65,6.1c-5.15,2.64-7.66,1-7.12-4.79.33-3.62,1.36-7.17,2-10.77,1-5.69-2.1-8.4-7.54-6.52-4.74,1.64-7.4,5.27-9.08,9.92a55.38,55.38,0,0,1-5,10.76c-2.15,3.39-5.14,6.35-9.83,5.34s-6.35-4.6-7.23-8.64c-2.65-12.14.73-22.71,9.1-31.66,3.84-4.1,8.94-6.21,14.46-4.87a12.53,12.53,0,0,1,6.85,5.26c.56.88-2.46,3.84-3.49,6-.59,1.24-.48,2.81-.68,4.22,3.85.19,8.07,1.42,11.45.23,2.63-.92,5.42-4.58,6-7.47,1.61-7.62-3.68-13.36-12.86-15.24-22.82-4.66-45.9,14.58-46.92,38.87a11,11,0,0,1-2.89,6.84A69.64,69.64,0,0,1,135,303c-16.18,4.39-29.65-1.44-36.82-16.61-2.65-5.6-4.89-11.92-5.19-18-1.75-36.07,12.47-65.62,38.71-89.62,3.85-3.53,9.37-5.66,14.48-7.29,6.5-2.07,12.61,1.19,14.63,7.77,4.14,13.5,2.58,24.74-6.4,33.29a26,26,0,0,0-3.56,3.47,19.55,19.55,0,0,0-1.73,4.29c1.64.45,3.49,1.61,4.89,1.21a44.89,44.89,0,0,0,9.6-4c10.83-6.06,16.2-16.34,14.72-27.7-1.64-12.52-9.78-21.92-21.78-25.09-9.52-2.52-18.48-.42-27.08,3.63-15.37,7.24-26.82,19-36.09,32.82C77.49,224.81,69.17,250.61,74,279.44c4,23.76,24.92,40,48.56,37.82,13.64-1.28,25.5-7.19,36-15.75,4.21-3.42,8-7.36,12.27-11.33,3.77,6.19,8.65,10.76,15.87,11.92,7.59,1.21,13.36-2.42,18.26-8,3.65,7.61,8.31,9.93,15.64,7.13,6.1-2.32,11.82-5.63,17.94-8.61a10.25,10.25,0,0,0-.13,2.54c.5,2.44.43,6.05,1.93,6.94,1.71,1,5.15.17,7.34-.9,5-2.47,7-7.28,7.9-12.57,2.37-14,10.85-24,21.21-32.74,1.54-1.3,3.72-1.85,5.6-2.75l1.09,1.26c-.82,2.44-1.55,4.92-2.47,7.33-3.49,9.23-6.21,18.57-5.68,28.62.47,9.1,6.48,14.44,15.3,12,6.28-1.71,12.23-5,18-8.11,3.5-1.9,6.38-4.93,9.89-7.73.41,1.95.72,3.39,1,4.83,2.67,12,8,14,18.27,6.88a12.84,12.84,0,0,0,2-1.52c6.73-7.09,13.4-14.24,20.17-21.3,1.17-1.21,2.58-2.58,4.12-3C368.7,271.31,373.42,270.57,378.5,269.58Z"/><path d="M359.06,257c-4.72-6.18-7.44-12.13-5.8-19.31.32-1.42,1.75-2.59,2.66-3.88,1.35,1.06,3.34,1.83,3.94,3.21C362.64,243.41,361.54,249.82,359.06,257Z"/></g></g></svg>