<svg xmlns="http://www.w3.org/2000/svg" viewBox="0 0 315.17 356.7"><g id="Capa_2" data-name="Capa 2"><g id="Capa_1-2" data-name="Capa 1"><path d="M0,0H315.17c-1.09,12.66-2.13,25-3.23,37.39q-4.28,47.93-8.59,95.85-4.83,54.12-9.64,108.26c-2.15,24.17-4.43,48.33-6.25,72.52-.42,5.58-2,8.12-7.81,9.68-39.44,10.57-78.73,21.67-118.1,32.48a14.29,14.29,0,0,1-7.2.11c-40.66-11.14-81.27-22.46-121.94-33.58-2.95-.81-4-2.17-4.28-5q-3.55-41.22-7.24-82.45-4.79-53.88-9.61-107.76Q7.08,80,2.9,32.6C2,21.87,1,11.14,0,0ZM206.16,184.77c-1.54,16.84-2.93,32.88-4.64,48.88-.14,1.28-2.33,2.94-3.86,3.39q-18.18,5.25-36.5,10a15.2,15.2,0,0,1-7.28-.11c-12.07-3.07-24-6.55-36.11-9.57-3.34-.83-4.51-2.41-4.75-5.68-.65-9.07-1.6-18.11-2.44-27.2H71.05c1.75,19.88,3.38,39.39,5.34,58.86.14,1.44,2.42,3.36,4.06,3.83q36.84,10.65,73.81,20.85a13.39,13.39,0,0,0,6.77.07c24.51-6.67,49-13.55,73.46-20.24,2.78-.76,4.2-1.76,4.32-4.91.21-5.3,1-10.59,1.47-15.88q7-78.24,13.91-156.47c.73-8.19,1.36-16.4,2-24.63H58.63C59.84,79.06,61,91.75,62.23,105H213c-1.23,13.85-2.39,27-3.6,40.67H65.76c1.18,13.28,2.32,26,3.48,39.07Z"/></g></g></svg>