<svg xmlns="http://www.w3.org/2000/svg" viewBox="0 0 295.75 462.42"><g id="Capa_2" data-name="Capa 2"><g id="Capa_2-2" data-name="Capa 2"><path d="M59.22,462.11c85.48,9.39,191.92-195.32,189.59-250.93,0,0,18.35,25.9,25.07,24.84,36.59-6.34,37.31-143.25-77.15-134.11-3.54.28-6.88,2.6-10.94,1.27-11-10.39,40.11-83.24,61.7-95.75,3.65-2.06,1.85-9-2.56-7.1-34.4,21.52-61,66.16-71.67,86.34-2,4.38-2.31,8.82-4.81,9.55C104.59-2.63-.47,79.81,7,132.27c1.25,6.63,38.27-3.21,38.27-3.21-1.27,3.77-3.54,5.36-6.18,9C-7.12,189.63-25.64,445.29,59.22,462.11Z"/></g></g></svg>