<svg xmlns="http://www.w3.org/2000/svg" viewBox="0 0 320.93 364.55"><g id="Capa_2" data-name="Capa 2"><g id="Capa_1-2" data-name="Capa 1"><path d="M161.2,364.55h-2.14c-.77-.3-1.51-.65-2.3-.88L38.34,330.24c-8.92-2.51-9.1-2.49-9.94-11.5-2.38-25.4-4.61-50.82-6.87-76.24q-3-33.85-6-67.74Q12.15,136.64,8.7,98.52,5.25,59.87,1.8,21.21C1.18,14.16.6,7.11,0,0H320.93c-.1,1.71-.14,3.14-.27,4.55q-4.49,49.83-9,99.65-4.81,54.08-9.53,108.17-4.94,55.68-9.86,111.36c-.26,2.93-1.28,4.23-4.19,5q-47.66,13.14-95.23,26.58C182.29,358.32,171.76,361.48,161.2,364.55ZM72.72,208.75c0,1-.06,1.82,0,2.62,1.49,19.41,3,38.81,4.45,58.23.15,2.15,1.28,2.66,3.06,3.15q38.92,10.68,77.84,21.43a6.76,6.76,0,0,0,3.42.18c26.3-7.19,52.58-14.48,78.88-21.67,2-.53,2.6-1.46,2.78-3.41Q248,215.57,253,161.85c.42-4.54.73-9.09,1.12-14H107.34c-1.14-13.79-2.26-27.32-3.41-41.29H257.65C258.86,93.17,260,80.12,261.22,67H59.7c3.59,40.68,7.14,81,10.72,121.72h139.5c-1.61,16.95-3.14,33.49-4.86,50-.1.91-1.71,2.11-2.83,2.42q-19.87,5.5-39.83,10.73a8.47,8.47,0,0,1-4.12.12c-13.53-3.55-27-7.25-40.55-10.79-2-.53-2.65-1.56-2.76-3.47-.19-3.44-.53-6.86-.85-10.29-.58-6.23-1.19-12.46-1.8-18.73Z"/></g></g></svg>