<svg xmlns="http://www.w3.org/2000/svg" viewBox="0 0 704.32 704.29"><g id="Capa_2" data-name="Capa 2"><g id="Capa_1-2" data-name="Capa 1"><path d="M351.81.2c54.66,0,109.32-.54,164,.16C561.53,1,602.05,16.58,637,46.42a189,189,0,0,1,58.43,88.52,184.67,184.67,0,0,1,8.77,55.82c0,108.64.47,217.3-.19,325.94-.28,45.36-16.37,85.61-45.89,120.15-29,33.86-65.45,55.2-109.19,63.65A181.29,181.29,0,0,1,515.24,704q-162.47.39-324.94,0c-43.39-.13-82.49-14-116.55-40.91-38.55-30.48-62.36-70-70.59-118.62A184.3,184.3,0,0,1,.3,514.38c-.2-109-.61-218,.1-326.95C.7,142.1,16.87,101.92,46.47,67.37,76.94,31.78,115.65,10.69,161.54,2.56A148,148,0,0,1,186.84.3C241.83.1,296.82.2,351.81.2Zm.53,640c52.82,0,105.65.15,158.47-.14A148,148,0,0,0,540,637c57.3-11.91,100.16-64.93,100.18-123.51q.06-161.22-.08-322.45a117.34,117.34,0,0,0-2.25-23.29C625.19,106.17,573.41,64.2,510.47,64.2q-158.48,0-317,.13a143,143,0,0,0-28.66,3c-58.07,12-100.67,64.75-100.68,124.1q0,158.24,0,316.45a170.35,170.35,0,0,0,.87,17.94c3.75,35.08,19.64,63.73,46.82,85.93,23.74,19.39,51.33,28.47,82,28.45Q273.11,640.17,352.34,640.2Z"/><path d="M513.38,351.31c.12,86.24-69.31,159.79-160.29,159.48-89.07-.3-159.93-71.28-159.53-160.92.4-90.66,74.93-160.48,162.92-159C442.86,192.34,514.19,263.75,513.38,351.31ZM353.54,255a95.94,95.94,0,1,0,0,191.87c52.67.21,95.54-42.94,95.86-96C449.74,298.23,406.31,254.41,353.54,255Z"/><path d="M528.29,144.2a32,32,0,1,1-32.12,31.88A32,32,0,0,1,528.29,144.2Z"/></g></g></svg>