<svg xmlns="http://www.w3.org/2000/svg" viewBox="0 0 496.03 496.09"><g id="Capa_2" data-name="Capa 2"><g id="Capa_1-2" data-name="Capa 1"><path d="M0,248.08q0-78.74,0-157.46c.06-28,11.53-51.33,32.48-69.14A87.88,87.88,0,0,1,90.84,0Q248.3.2,405.76,0c20,0,37.66,6.69,53.57,18.17,19.41,14,30.14,33.75,35.52,56.63A56.34,56.34,0,0,1,496,87.62q.09,160,0,319.93c0,19.61-7.24,36.85-18.64,52.38-13.87,18.92-33.18,29.52-55.63,34.82A54.28,54.28,0,0,1,409.46,496q-159.46.09-318.93.08c-20.18,0-38-6.68-54-18.39-19.21-14-29.92-33.62-35.27-56.37A56.79,56.79,0,0,1,.07,408.55Q0,328.32,0,248.08ZM267.19,420.14v-6.59c0-42.83-.25-85.66.27-128.49.08-6.69,2.64-13.91,5.88-19.9,6.33-11.7,16.38-19,30-20.85,10.62-1.44,25.24,2.55,31.35,12.6A58.16,58.16,0,0,1,343,287.49q.15,63.24,0,126.49v6h77.34v-6.42c0-36.66.16-73.33-.09-110-.09-12-1.3-24.07-1.9-36.1a92.49,92.49,0,0,0-12.67-42.12c-7.75-13.43-18.11-24.1-32.4-30.56-18.51-8.37-37.77-11.24-57.68-6.6-15.72,3.66-29.39,11.08-39.4,24.24-2.85,3.75-5.67,7.53-9.22,12.25V191.3H190.42V420.14ZM77,191.24V420.13h75.24V191.24ZM71.84,125.4c.11,5.89,3.15,15.26,10.73,22.51,10,9.59,22.05,12.33,35.92,11.38,20.52-1.41,38.94-20.42,35.69-42.36-1.77-11.92-7.45-20.8-17-27.61-8.63-6.17-18.45-6.51-28.56-6.09C87.81,84.11,72,100.16,71.84,125.4Z"/></g></g></svg>