<svg xmlns="http://www.w3.org/2000/svg" viewBox="0 0 1124.75 1045.5"><g id="Capa_2" data-name="Capa 2"><g id="Capa_1-2" data-name="Capa 1"><path d="M618.45,802.22c0-40.29.08-80.57-.11-120.86,0-4.63.84-6.08,5.85-6.12,41.77-.33,82.6-6.33,121.21-23,68.11-29.33,110.91-80,123.33-153.5C885,402.82,836.4,315.72,747,277.14c-30.52-13.18-62.62-19.83-95.66-22.47-9.47-.76-19-1.22-28.43-1.08-3.93.06-4.59-1.31-4.58-4.87q.18-64.93.08-129.85,0-57.2,0-114.37c0-2.77,0-4.53,3.81-4.5C703,.75,781.12,14.27,854.91,48.05c114,52.19,194.94,136.19,240.37,253.5A434.69,434.69,0,0,1,1124,436.07c6.22,116.91-25.9,222-98.77,313.82-49.78,62.75-113,107.86-187,138.11-46.11,18.87-94.08,30.5-143.55,36.29C671.36,927,648,928,624.5,928.89c-5.26.2-6.19-1.42-6.17-6.31C618.54,882.46,618.45,842.34,618.45,802.22ZM288.27,533.7Q339.87,637,391.64,740.21c2.21,4.39,1.46,5.93-2.75,8q-108,53.76-215.83,108c-4.75,2.39-6.23,1.31-8.34-3-15.37-31.16-31-62.2-46.56-93.27-.8-1.6-1.21-3.5-3-4.47Q64.63,823,14,890.43c-2.67,3.54-2.66,5.1,1,7.86q97,72.44,193.64,145.26c3.81,2.87,5.37,2.65,8.23-1.17Q466.79,708.83,717,375.49c2.26-3,2.38-4.45-.87-6.88q-97.56-72.9-194.86-146.14c-3.41-2.57-4.71-2.13-7.13,1.11Q431,334.7,347.68,445.64q-30.85,41.1-61.83,82.12C285.94,530,287.32,531.79,288.27,533.7Zm-5.49-11c-18.26-36.45-36.58-72.87-54.6-109.43-2.29-4.65-4.09-5-8.55-2.75q-107.92,54.23-216.07,108c-4.33,2.15-4.2,3.93-2.3,7.71Q57,637.33,112.49,748.55c1.11,2.21,2.61,4.3,2.7,6.92,1.76,1,2.17,2.87,3,4.47,15.57,31.07,31.19,62.11,46.56,93.27,2.11,4.29,3.59,5.37,8.34,3q107.79-54.23,215.83-108c4.21-2.1,5-3.64,2.75-8Q339.77,637,288.27,533.7c-.95-1.91-2.33-3.67-2.42-5.94C284.15,526.49,283.66,524.46,282.78,522.71Z"/></g></g></svg>