<svg xmlns="http://www.w3.org/2000/svg" viewBox="0 0 297 300"><g id="Capa_2" data-name="Capa 2"><g id="Capa_1-2" data-name="Capa 1"><path d="M1,300H0a59.93,59.93,0,0,1,1.42-6.27C8.87,271.5,16.31,249.27,24,227.11A11.38,11.38,0,0,0,23,216.88c-47.19-85.21.84-191.89,95.9-213C127.18,2.08,135.64,1.28,144,0h14c3.27.41,6.54.87,9.82,1.24,60.37,6.72,111.36,52,125.09,111.25,1.8,7.74,2.75,15.67,4.09,23.51v21c-.78,5.07-1.44,10.17-2.37,15.22-18,96.89-123,148.49-211,103.81a10.76,10.76,0,0,0-7.37-.6c-24,7.46-47.89,15.18-71.81,22.86A24.69,24.69,0,0,0,1,300Zm36.06-37.27C52.16,257.9,66,253.58,79.7,249a8.51,8.51,0,0,1,7.87,1c25.68,15.46,53.35,21,83,16.2,66-10.69,110.48-72.46,100.41-139.53-9.61-64-71-109.53-136.07-100.95C45.83,37.49-.29,138.64,49.46,213.34c2.08,3.12,2.5,5.61,1.26,9.13C46.12,235.43,41.85,248.51,37.06,262.73Z"/><path d="M77.63,110.81c.29-13,5.39-23.6,15-32.14,4.19-3.73,16.34-5.3,20.78-2.37a11.14,11.14,0,0,1,3.69,5.1c3.82,9.75,7.55,19.55,11,29.45a8.46,8.46,0,0,1-.71,6.51A86.49,86.49,0,0,1,118,129c-2.52,2.7-3.15,5.1-1.32,8.44,11.45,20.86,27.84,36.29,49.71,45.85,3.05,1.33,5.45.8,7.58-1.63,3.73-4.26,7.67-8.35,11.13-12.82,2.56-3.32,5.35-4.37,9-2.46C204,171.5,214,176.5,223.6,182.11c1.78,1,3.05,4.73,2.87,7.06-1.21,15.18-11.3,25.74-26.54,28.91a46.74,46.74,0,0,1-23.58-1.41c-34.51-10.4-61-31.2-80.49-61.24-7.08-10.9-14.37-21.68-16.89-34.76C78.34,117.42,78.07,114.1,77.63,110.81Z"/></g></g></svg>